# MagicaVoxel @ ephtracy

# material
mtllib chr_alberto.mtl
usemtl palette

# normals
vn -1 0 0
vn 1 0 0
vn 0 0 1
vn 0 0 -1
vn 0 -1 0
vn 0 1 0

# texcoords
vt 0.0136719 0.5
vt 0.0214844 0.5
vt 0.0332031 0.5
vt 0.0371094 0.5
vt 0.0410156 0.5
vt 0.0605469 0.5
vt 0.0878906 0.5
vt 0.142578 0.5
vt 0.306641 0.5
vt 0.521484 0.5
vt 0.533203 0.5
vt 0.564453 0.5
vt 0.611328 0.5
vt 0.646484 0.5
vt 0.662109 0.5
vt 0.705078 0.5
vt 0.826172 0.5
vt 0.958984 0.5
vt 0.962891 0.5
vt 0.978516 0.5
vt 0.986328 0.5
vt 0.994141 0.5

# verts
v -5 6 0.5
v -5 6 -0.5
v -5 8 0.5
v -5 8 -0.5
v -4 6 -0.5
v -4 6 -2.5
v -4 7 3.5
v -4 7 0.5
v -4 7 -0.5
v -4 7 -1.5
v -4 8 3.5
v -4 8 0.5
v -4 8 -0.5
v -4 8 -1.5
v -4 9 3.5
v -4 9 2.5
v -4 9 -0.5
v -4 10 4.5
v -4 10 3.5
v -4 10 2.5
v -4 10 -2.5
v -4 11 3.5
v -4 11 2.5
v -4 12 4.5
v -4 12 3.5
v -3 1 0.5
v -3 1 -0.5
v -3 1 -2.5
v -3 1 -4.5
v -3 2 0.5
v -3 2 -0.5
v -3 3 -4.5
v -3 3 -5.5
v -3 4 0.5
v -3 4 -0.5
v -3 5 2.5
v -3 5 -1.5
v -3 5 -2.5
v -3 5 -5.5
v -3 6 2.5
v -3 6 1.5
v -3 6 0.5
v -3 6 -0.5
v -3 6 -1.5
v -3 6 -2.5
v -3 6 -3.5
v -3 7 2.5
v -3 7 1.5
v -3 7 0.5
v -3 9 4.5
v -3 9 3.5
v -3 10 4.5
v -3 10 3.5
v -3 10 2.5
v -3 10 -1.5
v -3 10 -2.5
v -3 10 -3.5
v -3 11 2.5
v -3 11 -1.5
v -2 0 3.5
v -2 0 -1.5
v -2 1 3.5
v -2 1 2.5
v -2 1 0.5
v -2 1 -0.5
v -2 1 -1.5
v -2 1 -2.5
v -2 1 -4.5
v -2 1 -5.5
v -2 2 2.5
v -2 2 1.5
v -2 2 0.5
v -2 2 -0.5
v -2 3 2.5
v -2 3 1.5
v -2 3 -4.5
v -2 3 -5.5
v -2 4 2.5
v -2 4 0.5
v -2 4 -0.5
v -2 4 -1.5
v -2 4 -2.5
v -2 5 -1.5
v -2 5 -2.5
v -2 6 -1.5
v -2 6 -2.5
v -2 10 -1.5
v -2 10 -2.5
v -2 11 2.5
v -2 11 -1.5
v -2 11 -2.5
v -2 12 2.5
v -2 12 -1.5
v -1 3 -5.5
v -1 3 -6.5
v -1 4 1.5
v -1 4 -1.5
v -1 4 -5.5
v -1 4 -6.5
v -1 5 1.5
v -1 5 -1.5
v -1 10 4.5
v -1 10 3.5
v -1 11 4.5
v -1 11 3.5
v 1 0 3.5
v 1 0 -1.5
v 1 1 3.5
v 1 1 2.5
v 1 1 1.5
v 1 1 -1.5
v 1 8 3.5
v 1 8 2.5
v 1 9 4.5
v 1 9 3.5
v 1 9 2.5
v 1 10 4.5
v 1 10 3.5
v 1 11 4.5
v 1 11 3.5
v 1 12 4.5
v 1 12 3.5
v 3 7 3.5
v 3 7 2.5
v 3 8 3.5
v 3 8 2.5
v 3 10 4.5
v 3 10 3.5
v 3 11 4.5
v 3 11 3.5
v -3 10 4.5
v -3 10 3.5
v -3 11 4.5
v -3 11 3.5
v -2 7 3.5
v -2 7 2.5
v -2 8 3.5
v -2 8 2.5
v -1 0 3.5
v -1 0 -1.5
v -1 1 3.5
v -1 1 2.5
v -1 1 1.5
v -1 1 -1.5
v -1 9 4.5
v -1 9 3.5
v -1 10 4.5
v -1 10 3.5
v -1 11 4.5
v -1 11 3.5
v -1 12 4.5
v -1 12 3.5
v 0 8 3.5
v 0 8 2.5
v 0 9 3.5
v 0 9 2.5
v 1 3 -5.5
v 1 3 -6.5
v 1 4 1.5
v 1 4 -1.5
v 1 4 -5.5
v 1 4 -6.5
v 1 5 1.5
v 1 5 -1.5
v 1 10 4.5
v 1 10 3.5
v 1 11 4.5
v 1 11 3.5
v 2 0 3.5
v 2 0 -1.5
v 2 1 3.5
v 2 1 2.5
v 2 1 0.5
v 2 1 -0.5
v 2 1 -1.5
v 2 1 -2.5
v 2 1 -4.5
v 2 1 -5.5
v 2 2 2.5
v 2 2 1.5
v 2 2 0.5
v 2 2 -0.5
v 2 3 2.5
v 2 3 1.5
v 2 3 -4.5
v 2 3 -5.5
v 2 4 2.5
v 2 4 0.5
v 2 4 -0.5
v 2 4 -1.5
v 2 4 -2.5
v 2 5 -1.5
v 2 5 -2.5
v 2 6 -1.5
v 2 6 -2.5
v 2 8 -2.5
v 2 8 -3.5
v 2 10 -2.5
v 2 10 -3.5
v 3 1 0.5
v 3 1 -0.5
v 3 1 -2.5
v 3 1 -4.5
v 3 2 0.5
v 3 2 -0.5
v 3 3 -4.5
v 3 3 -5.5
v 3 4 0.5
v 3 4 -0.5
v 3 5 2.5
v 3 5 -1.5
v 3 5 -2.5
v 3 5 -5.5
v 3 6 2.5
v 3 6 1.5
v 3 6 0.5
v 3 6 -0.5
v 3 6 -1.5
v 3 6 -2.5
v 3 6 -3.5
v 3 7 2.5
v 3 7 1.5
v 3 7 0.5
v 3 8 -2.5
v 3 8 -3.5
v 3 9 4.5
v 3 9 3.5
v 3 10 4.5
v 3 10 3.5
v 3 10 2.5
v 3 10 -2.5
v 3 11 2.5
v 3 11 -1.5
v 3 11 -2.5
v 3 12 2.5
v 3 12 -1.5
v 4 6 -0.5
v 4 6 -2.5
v 4 7 3.5
v 4 7 0.5
v 4 7 -0.5
v 4 7 -1.5
v 4 8 3.5
v 4 8 0.5
v 4 8 -0.5
v 4 8 -1.5
v 4 9 3.5
v 4 9 2.5
v 4 9 -0.5
v 4 10 4.5
v 4 10 3.5
v 4 10 2.5
v 4 10 -2.5
v 4 11 3.5
v 4 11 2.5
v 4 12 4.5
v 4 12 3.5
v 5 6 0.5
v 5 6 -0.5
v 5 8 0.5
v 5 8 -0.5
v -4 10 4.5
v -4 12 4.5
v -3 9 4.5
v -3 10 4.5
v -3 11 4.5
v -1 9 4.5
v -1 10 4.5
v -1 11 4.5
v -1 12 4.5
v 1 9 4.5
v 1 10 4.5
v 1 11 4.5
v 1 12 4.5
v 3 9 4.5
v 3 10 4.5
v 3 11 4.5
v 4 10 4.5
v 4 12 4.5
v -4 7 3.5
v -4 8 3.5
v -4 9 3.5
v -4 10 3.5
v -3 8 3.5
v -3 9 3.5
v -3 10 3.5
v -3 11 3.5
v -2 0 3.5
v -2 1 3.5
v -2 7 3.5
v -2 8 3.5
v -2 10 3.5
v -2 11 3.5
v -1 0 3.5
v -1 1 3.5
v -1 9 3.5
v -1 10 3.5
v -1 11 3.5
v 0 8 3.5
v 0 9 3.5
v 1 0 3.5
v 1 1 3.5
v 1 8 3.5
v 1 9 3.5
v 1 10 3.5
v 1 11 3.5
v 2 0 3.5
v 2 1 3.5
v 2 10 3.5
v 2 11 3.5
v 3 7 3.5
v 3 8 3.5
v 3 9 3.5
v 3 10 3.5
v 3 11 3.5
v 4 7 3.5
v 4 8 3.5
v 4 9 3.5
v 4 10 3.5
v -3 5 2.5
v -3 6 2.5
v -3 7 2.5
v -2 1 2.5
v -2 2 2.5
v -2 3 2.5
v -2 4 2.5
v -2 7 2.5
v -2 8 2.5
v -2 11 2.5
v -2 12 2.5
v -1 1 2.5
v -1 2 2.5
v -1 3 2.5
v -1 4 2.5
v -1 5 2.5
v -1 6 2.5
v -1 7 2.5
v -1 8 2.5
v -1 11 2.5
v 0 2 2.5
v 0 3 2.5
v 0 5 2.5
v 0 7 2.5
v 0 8 2.5
v 0 9 2.5
v 1 1 2.5
v 1 2 2.5
v 1 3 2.5
v 1 4 2.5
v 1 6 2.5
v 1 7 2.5
v 1 8 2.5
v 1 9 2.5
v 1 11 2.5
v 2 1 2.5
v 2 2 2.5
v 2 3 2.5
v 2 4 2.5
v 2 11 2.5
v 3 5 2.5
v 3 6 2.5
v 3 7 2.5
v 3 8 2.5
v 3 11 2.5
v 3 12 2.5
v -1 4 1.5
v -1 5 1.5
v 0 5 1.5
v 1 4 1.5
v 1 5 1.5
v -5 6 0.5
v -5 8 0.5
v -4 6 0.5
v -4 7 0.5
v -4 8 0.5
v -3 1 0.5
v -3 2 0.5
v -3 4 0.5
v -3 6 0.5
v -3 7 0.5
v -2 1 0.5
v -2 2 0.5
v -2 4 0.5
v 2 1 0.5
v 2 2 0.5
v 2 4 0.5
v 3 1 0.5
v 3 2 0.5
v 3 4 0.5
v 3 6 0.5
v 3 7 0.5
v 4 6 0.5
v 4 7 0.5
v 4 8 0.5
v 5 6 0.5
v 5 8 0.5
v -3 1 -2.5
v -3 5 -2.5
v -2 1 -2.5
v -2 4 -2.5
v -2 5 -2.5
v 2 1 -2.5
v 2 4 -2.5
v 2 5 -2.5
v 3 1 -2.5
v 3 5 -2.5
v -4 11 3.5
v -4 12 3.5
v -3 11 3.5
v -2 11 3.5
v -1 11 3.5
v -1 12 3.5
v 1 11 3.5
v 1 12 3.5
v 2 11 3.5
v 3 11 3.5
v 4 11 3.5
v 4 12 3.5
v -4 10 2.5
v -4 11 2.5
v -3 10 2.5
v -3 11 2.5
v 3 10 2.5
v 3 11 2.5
v 4 10 2.5
v 4 11 2.5
v -5 6 -0.5
v -5 8 -0.5
v -4 6 -0.5
v -4 7 -0.5
v -4 8 -0.5
v -3 1 -0.5
v -3 2 -0.5
v -3 4 -0.5
v -2 1 -0.5
v -2 2 -0.5
v -2 4 -0.5
v 2 1 -0.5
v 2 2 -0.5
v 2 4 -0.5
v 3 1 -0.5
v 3 2 -0.5
v 3 4 -0.5
v 4 6 -0.5
v 4 7 -0.5
v 4 8 -0.5
v 5 6 -0.5
v 5 8 -0.5
v -3 5 -1.5
v -3 6 -1.5
v -3 10 -1.5
v -3 11 -1.5
v -2 0 -1.5
v -2 1 -1.5
v -2 5 -1.5
v -2 6 -1.5
v -2 10 -1.5
v -2 11 -1.5
v -2 12 -1.5
v -1 0 -1.5
v -1 1 -1.5
v -1 4 -1.5
v -1 5 -1.5
v 1 0 -1.5
v 1 1 -1.5
v 1 4 -1.5
v 1 5 -1.5
v 2 0 -1.5
v 2 1 -1.5
v 2 5 -1.5
v 2 6 -1.5
v 3 5 -1.5
v 3 6 -1.5
v 3 11 -1.5
v 3 12 -1.5
v -4 6 -2.5
v -4 10 -2.5
v -3 6 -2.5
v -3 10 -2.5
v -2 5 -2.5
v -2 6 -2.5
v -2 10 -2.5
v -2 11 -2.5
v 2 5 -2.5
v 2 6 -2.5
v 2 8 -2.5
v 2 10 -2.5
v 3 6 -2.5
v 3 8 -2.5
v 3 10 -2.5
v 3 11 -2.5
v 4 6 -2.5
v 4 10 -2.5
v -3 6 -3.5
v -3 10 -3.5
v 2 8 -3.5
v 2 10 -3.5
v 3 6 -3.5
v 3 8 -3.5
v -3 1 -4.5
v -3 3 -4.5
v -2 1 -4.5
v -2 3 -4.5
v 2 1 -4.5
v 2 3 -4.5
v 3 1 -4.5
v 3 3 -4.5
v -3 3 -5.5
v -3 5 -5.5
v -2 1 -5.5
v -2 3 -5.5
v -1 3 -5.5
v -1 4 -5.5
v 1 3 -5.5
v 1 4 -5.5
v 2 1 -5.5
v 2 3 -5.5
v 3 3 -5.5
v 3 5 -5.5
v -1 3 -6.5
v -1 4 -6.5
v 1 3 -6.5
v 1 4 -6.5
v -2 0 3.5
v -1 0 3.5
v 1 0 3.5
v 2 0 3.5
v -2 0 -1.5
v -1 0 -1.5
v 1 0 -1.5
v 2 0 -1.5
v -1 1 2.5
v 1 1 2.5
v -1 1 1.5
v 1 1 1.5
v -3 1 0.5
v -2 1 0.5
v 2 1 0.5
v 3 1 0.5
v -3 1 -0.5
v -2 1 -0.5
v 2 1 -0.5
v 3 1 -0.5
v -2 1 -1.5
v -1 1 -1.5
v 1 1 -1.5
v 2 1 -1.5
v -3 1 -2.5
v -2 1 -2.5
v -1 1 -2.5
v 1 1 -2.5
v 2 1 -2.5
v 3 1 -2.5
v -3 1 -4.5
v -2 1 -4.5
v 2 1 -4.5
v 3 1 -4.5
v -2 1 -5.5
v 2 1 -5.5
v -3 3 -4.5
v -2 3 -4.5
v 2 3 -4.5
v 3 3 -4.5
v -3 3 -5.5
v -2 3 -5.5
v -1 3 -5.5
v 1 3 -5.5
v 2 3 -5.5
v 3 3 -5.5
v -1 3 -6.5
v 1 3 -6.5
v -3 5 2.5
v -1 5 2.5
v 0 5 2.5
v 3 5 2.5
v -1 5 1.5
v 0 5 1.5
v 1 5 1.5
v -3 5 -1.5
v -2 5 -1.5
v -1 5 -1.5
v 1 5 -1.5
v 2 5 -1.5
v 3 5 -1.5
v -2 5 -2.5
v 2 5 -2.5
v -5 6 0.5
v -4 6 0.5
v -3 6 0.5
v 3 6 0.5
v 4 6 0.5
v 5 6 0.5
v -5 6 -0.5
v -4 6 -0.5
v -3 6 -0.5
v 3 6 -0.5
v 4 6 -0.5
v 5 6 -0.5
v -3 6 -1.5
v -2 6 -1.5
v 2 6 -1.5
v 3 6 -1.5
v -4 6 -2.5
v -3 6 -2.5
v -2 6 -2.5
v 2 6 -2.5
v 3 6 -2.5
v 4 6 -2.5
v -3 6 -3.5
v 3 6 -3.5
v -4 7 3.5
v -2 7 3.5
v 3 7 3.5
v 4 7 3.5
v -3 7 2.5
v -2 7 2.5
v 3 7 2.5
v -3 7 1.5
v 3 7 1.5
v -4 7 0.5
v -3 7 0.5
v 3 7 0.5
v 4 7 0.5
v -2 8 3.5
v 0 8 3.5
v 1 8 3.5
v 3 8 3.5
v -2 8 2.5
v -1 8 2.5
v 0 8 2.5
v 1 8 2.5
v 3 8 2.5
v -3 9 4.5
v -1 9 4.5
v 1 9 4.5
v 3 9 4.5
v -3 9 3.5
v -1 9 3.5
v 0 9 3.5
v 1 9 3.5
v 3 9 3.5
v 0 9 2.5
v 1 9 2.5
v -4 10 4.5
v -3 10 4.5
v -1 10 4.5
v 1 10 4.5
v 3 10 4.5
v 4 10 4.5
v -4 10 3.5
v -3 10 3.5
v -1 10 3.5
v 1 10 3.5
v 3 10 3.5
v 4 10 3.5
v -3 11 4.5
v -1 11 4.5
v 1 11 4.5
v 3 11 4.5
v -3 11 3.5
v -2 11 3.5
v -1 11 3.5
v 1 11 3.5
v 2 11 3.5
v 3 11 3.5
v -2 1 3.5
v -1 1 3.5
v 1 1 3.5
v 2 1 3.5
v -2 1 2.5
v -1 1 2.5
v 1 1 2.5
v 2 1 2.5
v -2 4 2.5
v -1 4 2.5
v 1 4 2.5
v 2 4 2.5
v -1 4 1.5
v 1 4 1.5
v -3 4 0.5
v -2 4 0.5
v 2 4 0.5
v 3 4 0.5
v -3 4 -0.5
v -2 4 -0.5
v 2 4 -0.5
v 3 4 -0.5
v -2 4 -1.5
v -1 4 -1.5
v 1 4 -1.5
v 2 4 -1.5
v -2 4 -2.5
v 2 4 -2.5
v -1 4 -5.5
v 1 4 -5.5
v -1 4 -6.5
v 1 4 -6.5
v -3 5 -2.5
v -2 5 -2.5
v 2 5 -2.5
v 3 5 -2.5
v -3 5 -5.5
v 3 5 -5.5
v -5 8 0.5
v -4 8 0.5
v 4 8 0.5
v 5 8 0.5
v -5 8 -0.5
v -4 8 -0.5
v 4 8 -0.5
v 5 8 -0.5
v 2 8 -2.5
v 3 8 -2.5
v 2 8 -3.5
v 3 8 -3.5
v -3 10 4.5
v -1 10 4.5
v 1 10 4.5
v 3 10 4.5
v -3 10 3.5
v -2 10 3.5
v -1 10 3.5
v 1 10 3.5
v 2 10 3.5
v 3 10 3.5
v -4 10 2.5
v -3 10 2.5
v 3 10 2.5
v 4 10 2.5
v -3 10 -1.5
v -2 10 -1.5
v -4 10 -2.5
v -3 10 -2.5
v -2 10 -2.5
v 2 10 -2.5
v 3 10 -2.5
v 4 10 -2.5
v -3 10 -3.5
v 2 10 -3.5
v -1 11 4.5
v 1 11 4.5
v -4 11 3.5
v -3 11 3.5
v -2 11 3.5
v -1 11 3.5
v 1 11 3.5
v 2 11 3.5
v 3 11 3.5
v 4 11 3.5
v -4 11 2.5
v -3 11 2.5
v -2 11 2.5
v -1 11 2.5
v 1 11 2.5
v 2 11 2.5
v 3 11 2.5
v 4 11 2.5
v -3 11 -1.5
v -2 11 -1.5
v 3 11 -1.5
v -2 11 -2.5
v 3 11 -2.5
v -4 12 4.5
v -1 12 4.5
v 1 12 4.5
v 4 12 4.5
v -4 12 3.5
v -1 12 3.5
v 1 12 3.5
v 4 12 3.5
v -2 12 2.5
v 3 12 2.5
v -2 12 -1.5
v 3 12 -1.5

# faces
f 3/3/1 2/3/1 1/3/1
f 4/3/1 2/3/1 3/3/1
f 9/22/1 6/22/1 5/22/1
f 10/22/1 6/22/1 9/22/1
f 11/22/1 8/22/1 7/22/1
f 12/22/1 8/22/1 11/22/1
f 13/11/1 10/11/1 9/11/1
f 14/22/1 6/22/1 10/22/1
f 14/11/1 10/11/1 13/11/1
f 15/11/1 13/11/1 12/11/1
f 15/11/1 12/11/1 11/11/1
f 16/11/1 13/11/1 15/11/1
f 17/22/1 14/22/1 13/22/1
f 17/11/1 13/11/1 16/11/1
f 19/20/1 16/20/1 15/20/1
f 20/22/1 17/22/1 16/22/1
f 20/20/1 16/20/1 19/20/1
f 21/22/1 6/22/1 14/22/1
f 21/22/1 17/22/1 20/22/1
f 21/22/1 14/22/1 17/22/1
f 22/20/1 20/20/1 19/20/1
f 22/20/1 19/20/1 18/20/1
f 23/20/1 20/20/1 22/20/1
f 24/20/1 22/20/1 18/20/1
f 25/20/1 22/20/1 24/20/1
f 30/3/1 27/3/1 26/3/1
f 31/3/1 27/3/1 30/3/1
f 32/7/1 29/7/1 28/7/1
f 34/15/1 31/15/1 30/15/1
f 35/15/1 31/15/1 34/15/1
f 38/7/1 33/7/1 32/7/1
f 38/7/1 32/7/1 28/7/1
f 39/7/1 33/7/1 38/7/1
f 40/3/1 37/3/1 36/3/1
f 41/3/1 37/3/1 40/3/1
f 42/3/1 37/3/1 41/3/1
f 43/3/1 37/3/1 42/3/1
f 44/3/1 37/3/1 43/3/1
f 47/22/1 41/22/1 40/22/1
f 48/3/1 42/3/1 41/3/1
f 48/22/1 41/22/1 47/22/1
f 49/3/1 42/3/1 48/3/1
f 52/20/1 51/20/1 50/20/1
f 53/20/1 51/20/1 52/20/1
f 56/22/1 46/22/1 45/22/1
f 57/22/1 46/22/1 56/22/1
f 58/22/1 55/22/1 54/22/1
f 59/22/1 55/22/1 58/22/1
f 62/22/1 61/22/1 60/22/1
f 63/22/1 61/22/1 62/22/1
f 64/22/1 61/22/1 63/22/1
f 65/22/1 61/22/1 64/22/1
f 66/22/1 61/22/1 65/22/1
f 70/17/1 64/17/1 63/17/1
f 71/17/1 64/17/1 70/17/1
f 72/17/1 64/17/1 71/17/1
f 73/17/1 66/17/1 65/17/1
f 74/2/1 71/2/1 70/2/1
f 75/17/1 72/17/1 71/17/1
f 75/2/1 71/2/1 74/2/1
f 76/7/1 69/7/1 68/7/1
f 77/7/1 69/7/1 76/7/1
f 78/17/1 75/17/1 74/17/1
f 79/17/1 72/17/1 75/17/1
f 79/17/1 75/17/1 78/17/1
f 80/17/1 66/17/1 73/17/1
f 81/7/1 67/7/1 66/7/1
f 81/17/1 66/17/1 80/17/1
f 82/7/1 67/7/1 81/7/1
f 85/3/1 84/3/1 83/3/1
f 86/3/1 84/3/1 85/3/1
f 90/22/1 88/22/1 87/22/1
f 91/22/1 88/22/1 90/22/1
f 92/22/1 90/22/1 89/22/1
f 93/22/1 90/22/1 92/22/1
f 98/1/1 95/1/1 94/1/1
f 99/1/1 95/1/1 98/1/1
f 100/8/1 97/8/1 96/8/1
f 101/8/1 97/8/1 100/8/1
f 104/20/1 103/20/1 102/20/1
f 105/20/1 103/20/1 104/20/1
f 108/22/1 107/22/1 106/22/1
f 109/22/1 107/22/1 108/22/1
f 110/22/1 107/22/1 109/22/1
f 111/22/1 107/22/1 110/22/1
f 115/22/1 113/22/1 112/22/1
f 116/22/1 113/22/1 115/22/1
f 117/20/1 115/20/1 114/20/1
f 118/20/1 115/20/1 117/20/1
f 121/20/1 120/20/1 119/20/1
f 122/20/1 120/20/1 121/20/1
f 125/22/1 124/22/1 123/22/1
f 126/22/1 124/22/1 125/22/1
f 129/20/1 128/20/1 127/20/1
f 130/20/1 128/20/1 129/20/1
f 131/20/2 132/20/2 133/20/2
f 133/20/2 132/20/2 134/20/2
f 135/22/2 136/22/2 137/22/2
f 137/22/2 136/22/2 138/22/2
f 139/22/2 140/22/2 141/22/2
f 141/22/2 140/22/2 142/22/2
f 142/22/2 140/22/2 143/22/2
f 143/22/2 140/22/2 144/22/2
f 145/20/2 146/20/2 147/20/2
f 147/20/2 146/20/2 148/20/2
f 149/20/2 150/20/2 151/20/2
f 151/20/2 150/20/2 152/20/2
f 153/22/2 154/22/2 155/22/2
f 155/22/2 154/22/2 156/22/2
f 157/1/2 158/1/2 161/1/2
f 161/1/2 158/1/2 162/1/2
f 159/8/2 160/8/2 163/8/2
f 163/8/2 160/8/2 164/8/2
f 165/20/2 166/20/2 167/20/2
f 167/20/2 166/20/2 168/20/2
f 169/22/2 170/22/2 171/22/2
f 171/22/2 170/22/2 172/22/2
f 172/22/2 170/22/2 173/22/2
f 173/22/2 170/22/2 174/22/2
f 174/22/2 170/22/2 175/22/2
f 172/17/2 173/17/2 179/17/2
f 179/17/2 173/17/2 180/17/2
f 180/17/2 173/17/2 181/17/2
f 174/17/2 175/17/2 182/17/2
f 179/2/2 180/2/2 183/2/2
f 180/17/2 181/17/2 184/17/2
f 183/2/2 180/2/2 184/2/2
f 177/7/2 178/7/2 185/7/2
f 185/7/2 178/7/2 186/7/2
f 183/17/2 184/17/2 187/17/2
f 184/17/2 181/17/2 188/17/2
f 187/17/2 184/17/2 188/17/2
f 182/17/2 175/17/2 189/17/2
f 175/7/2 176/7/2 190/7/2
f 189/17/2 175/17/2 190/17/2
f 190/7/2 176/7/2 191/7/2
f 192/3/2 193/3/2 194/3/2
f 194/3/2 193/3/2 195/3/2
f 196/22/2 197/22/2 198/22/2
f 198/22/2 197/22/2 199/22/2
f 200/3/2 201/3/2 204/3/2
f 204/3/2 201/3/2 205/3/2
f 202/7/2 203/7/2 206/7/2
f 204/15/2 205/15/2 208/15/2
f 208/15/2 205/15/2 209/15/2
f 206/7/2 207/7/2 212/7/2
f 202/7/2 206/7/2 212/7/2
f 212/7/2 207/7/2 213/7/2
f 210/3/2 211/3/2 214/3/2
f 214/3/2 211/3/2 215/3/2
f 215/3/2 211/3/2 216/3/2
f 216/3/2 211/3/2 217/3/2
f 217/3/2 211/3/2 218/3/2
f 214/22/2 215/22/2 221/22/2
f 215/3/2 216/3/2 222/3/2
f 221/22/2 215/22/2 222/22/2
f 222/3/2 216/3/2 223/3/2
f 219/22/2 220/22/2 224/22/2
f 224/22/2 220/22/2 225/22/2
f 226/20/2 227/20/2 228/20/2
f 228/20/2 227/20/2 229/20/2
f 230/22/2 231/22/2 232/22/2
f 232/22/2 231/22/2 233/22/2
f 233/22/2 231/22/2 234/22/2
f 232/22/2 233/22/2 235/22/2
f 235/22/2 233/22/2 236/22/2
f 237/22/2 238/22/2 241/22/2
f 241/22/2 238/22/2 242/22/2
f 239/22/2 240/22/2 243/22/2
f 243/22/2 240/22/2 244/22/2
f 241/11/2 242/11/2 245/11/2
f 242/22/2 238/22/2 246/22/2
f 245/11/2 242/11/2 246/11/2
f 244/11/2 245/11/2 247/11/2
f 243/11/2 244/11/2 247/11/2
f 247/11/2 245/11/2 248/11/2
f 245/22/2 246/22/2 249/22/2
f 248/11/2 245/11/2 249/11/2
f 247/20/2 248/20/2 251/20/2
f 248/22/2 249/22/2 252/22/2
f 251/20/2 248/20/2 252/20/2
f 246/22/2 238/22/2 253/22/2
f 252/22/2 249/22/2 253/22/2
f 249/22/2 246/22/2 253/22/2
f 251/20/2 252/20/2 254/20/2
f 250/20/2 251/20/2 254/20/2
f 254/20/2 252/20/2 255/20/2
f 250/20/2 254/20/2 256/20/2
f 256/20/2 254/20/2 257/20/2
f 258/3/2 259/3/2 260/3/2
f 260/3/2 259/3/2 261/3/2
f 265/20/3 263/20/3 262/20/3
f 266/20/3 263/20/3 265/20/3
f 267/20/3 265/20/3 264/20/3
f 268/20/3 265/20/3 267/20/3
f 269/20/3 263/20/3 266/20/3
f 270/20/3 263/20/3 269/20/3
f 272/20/3 269/20/3 268/20/3
f 273/20/3 269/20/3 272/20/3
f 275/20/3 272/20/3 271/20/3
f 276/20/3 272/20/3 275/20/3
f 277/20/3 274/20/3 273/20/3
f 278/20/3 277/20/3 276/20/3
f 279/20/3 274/20/3 277/20/3
f 279/20/3 277/20/3 278/20/3
f 284/22/3 281/22/3 280/22/3
f 284/11/3 282/11/3 281/11/3
f 285/20/3 283/20/3 282/20/3
f 285/11/3 282/11/3 284/11/3
f 286/20/3 283/20/3 285/20/3
f 290/22/3 284/22/3 280/22/3
f 290/22/3 285/22/3 284/22/3
f 291/22/3 285/22/3 290/22/3
f 292/12/3 287/12/3 286/12/3
f 293/12/3 287/12/3 292/12/3
f 294/22/3 289/22/3 288/22/3
f 295/22/3 289/22/3 294/22/3
f 296/22/3 285/22/3 291/22/3
f 297/16/3 293/16/3 292/16/3
f 298/16/3 293/16/3 297/16/3
f 299/22/3 296/22/3 291/22/3
f 299/22/3 297/22/3 296/22/3
f 300/22/3 297/22/3 299/22/3
f 304/22/3 297/22/3 300/22/3
f 305/22/3 297/22/3 304/22/3
f 307/22/3 302/22/3 301/22/3
f 308/22/3 302/22/3 307/22/3
f 309/12/3 306/12/3 305/12/3
f 310/12/3 306/12/3 309/12/3
f 312/22/3 304/22/3 303/22/3
f 313/22/3 304/22/3 312/22/3
f 314/16/3 310/16/3 309/16/3
f 315/16/3 310/16/3 314/16/3
f 316/22/3 312/22/3 311/22/3
f 317/11/3 313/11/3 312/11/3
f 317/22/3 312/22/3 316/22/3
f 318/20/3 314/20/3 313/20/3
f 318/11/3 313/11/3 317/11/3
f 319/20/3 314/20/3 318/20/3
f 327/22/3 322/22/3 321/22/3
f 331/17/3 324/17/3 323/17/3
f 332/2/3 325/2/3 324/2/3
f 332/17/3 324/17/3 331/17/3
f 333/17/3 326/17/3 325/17/3
f 333/2/3 325/2/3 332/2/3
f 334/17/3 326/17/3 333/17/3
f 335/3/3 321/3/3 320/3/3
f 336/22/3 327/22/3 321/22/3
f 336/3/3 321/3/3 335/3/3
f 337/4/3 328/4/3 327/4/3
f 337/22/3 327/22/3 336/22/3
f 338/4/3 328/4/3 337/4/3
f 339/22/3 330/22/3 329/22/3
f 340/2/3 332/2/3 331/2/3
f 340/18/3 333/18/3 332/18/3
f 341/2/3 334/2/3 333/2/3
f 341/18/3 333/18/3 340/18/3
f 342/4/3 336/4/3 335/4/3
f 342/4/3 337/4/3 336/4/3
f 343/3/3 338/3/3 337/3/3
f 343/4/3 337/4/3 342/4/3
f 344/3/3 338/3/3 343/3/3
f 346/2/3 340/2/3 331/2/3
f 347/19/3 341/19/3 340/19/3
f 347/2/3 340/2/3 346/2/3
f 348/2/3 334/2/3 341/2/3
f 348/19/3 341/19/3 347/19/3
f 349/2/3 334/2/3 348/2/3
f 350/3/3 343/3/3 342/3/3
f 350/3/3 344/3/3 343/3/3
f 351/3/3 344/3/3 350/3/3
f 352/4/3 345/4/3 344/4/3
f 352/3/3 344/3/3 351/3/3
f 353/4/3 345/4/3 352/4/3
f 354/22/3 330/22/3 339/22/3
f 355/17/3 347/17/3 346/17/3
f 356/2/3 348/2/3 347/2/3
f 356/17/3 347/17/3 355/17/3
f 357/17/3 349/17/3 348/17/3
f 357/2/3 348/2/3 356/2/3
f 358/17/3 349/17/3 357/17/3
f 359/22/3 330/22/3 354/22/3
f 360/3/3 350/3/3 342/3/3
f 361/22/3 351/22/3 350/22/3
f 361/3/3 350/3/3 360/3/3
f 362/3/3 352/3/3 351/3/3
f 362/22/3 351/22/3 361/22/3
f 363/3/3 352/3/3 362/3/3
f 364/22/3 330/22/3 359/22/3
f 365/22/3 330/22/3 364/22/3
f 368/8/3 367/8/3 366/8/3
f 369/8/3 368/8/3 366/8/3
f 370/8/3 368/8/3 369/8/3
f 373/3/3 372/3/3 371/3/3
f 374/3/3 372/3/3 373/3/3
f 375/3/3 372/3/3 374/3/3
f 379/5/3 374/5/3 373/5/3
f 380/5/3 374/5/3 379/5/3
f 381/3/3 377/3/3 376/3/3
f 382/15/3 378/15/3 377/15/3
f 382/3/3 377/3/3 381/3/3
f 383/15/3 378/15/3 382/15/3
f 387/3/3 385/3/3 384/3/3
f 388/15/3 386/15/3 385/15/3
f 388/3/3 385/3/3 387/3/3
f 389/15/3 386/15/3 388/15/3
f 392/5/3 391/5/3 390/5/3
f 393/5/3 391/5/3 392/5/3
f 395/3/3 393/3/3 392/3/3
f 395/3/3 394/3/3 393/3/3
f 396/3/3 394/3/3 395/3/3
f 399/7/3 398/7/3 397/7/3
f 400/7/3 398/7/3 399/7/3
f 401/7/3 398/7/3 400/7/3
f 403/7/3 401/7/3 400/7/3
f 404/7/3 401/7/3 403/7/3
f 405/7/3 403/7/3 402/7/3
f 405/7/3 404/7/3 403/7/3
f 406/7/3 404/7/3 405/7/3
f 407/20/4 408/20/4 409/20/4
f 409/20/4 408/20/4 410/20/4
f 410/20/4 408/20/4 411/20/4
f 411/20/4 408/20/4 412/20/4
f 413/20/4 414/20/4 415/20/4
f 415/20/4 414/20/4 416/20/4
f 416/20/4 414/20/4 417/20/4
f 417/20/4 414/20/4 418/20/4
f 419/20/4 420/20/4 421/20/4
f 421/20/4 420/20/4 422/20/4
f 423/20/4 424/20/4 425/20/4
f 425/20/4 424/20/4 426/20/4
f 427/3/4 428/3/4 429/3/4
f 429/3/4 428/3/4 430/3/4
f 430/3/4 428/3/4 431/3/4
f 432/3/4 433/3/4 435/3/4
f 433/15/4 434/15/4 436/15/4
f 435/3/4 433/3/4 436/3/4
f 436/15/4 434/15/4 437/15/4
f 438/3/4 439/3/4 441/3/4
f 439/15/4 440/15/4 442/15/4
f 441/3/4 439/3/4 442/3/4
f 442/15/4 440/15/4 443/15/4
f 444/3/4 445/3/4 447/3/4
f 445/3/4 446/3/4 447/3/4
f 447/3/4 446/3/4 448/3/4
f 449/3/4 450/3/4 455/3/4
f 455/3/4 450/3/4 456/3/4
f 451/22/4 452/22/4 457/22/4
f 457/22/4 452/22/4 458/22/4
f 453/22/4 454/22/4 460/22/4
f 460/22/4 454/22/4 461/22/4
f 462/8/4 463/8/4 466/8/4
f 466/8/4 463/8/4 467/8/4
f 464/22/4 465/22/4 468/22/4
f 468/22/4 465/22/4 469/22/4
f 470/3/4 471/3/4 472/3/4
f 472/3/4 471/3/4 473/3/4
f 458/22/4 459/22/4 474/22/4
f 474/22/4 459/22/4 475/22/4
f 476/22/4 477/22/4 478/22/4
f 478/22/4 477/22/4 479/22/4
f 480/3/4 481/3/4 484/3/4
f 484/3/4 481/3/4 485/3/4
f 482/22/4 483/22/4 487/22/4
f 486/22/4 487/22/4 489/22/4
f 487/22/4 483/22/4 490/22/4
f 489/22/4 487/22/4 490/22/4
f 490/22/4 483/22/4 491/22/4
f 488/22/4 489/22/4 492/22/4
f 489/22/4 490/22/4 492/22/4
f 492/22/4 490/22/4 493/22/4
f 494/22/4 495/22/4 496/22/4
f 496/22/4 495/22/4 497/22/4
f 494/22/4 496/22/4 498/22/4
f 498/22/4 496/22/4 499/22/4
f 500/7/4 501/7/4 502/7/4
f 502/7/4 501/7/4 503/7/4
f 504/7/4 505/7/4 506/7/4
f 506/7/4 505/7/4 507/7/4
f 508/7/4 509/7/4 511/7/4
f 511/7/4 509/7/4 512/7/4
f 510/7/4 511/7/4 512/7/4
f 512/7/4 509/7/4 513/7/4
f 510/7/4 512/7/4 514/7/4
f 513/7/4 509/7/4 515/7/4
f 510/7/4 514/7/4 516/7/4
f 514/7/4 515/7/4 516/7/4
f 516/7/4 515/7/4 517/7/4
f 517/7/4 515/7/4 518/7/4
f 515/7/4 509/7/4 519/7/4
f 518/7/4 515/7/4 519/7/4
f 520/1/4 521/1/4 522/1/4
f 522/1/4 521/1/4 523/1/4
f 528/22/5 525/22/5 524/22/5
f 529/22/5 525/22/5 528/22/5
f 530/22/5 527/22/5 526/22/5
f 531/22/5 527/22/5 530/22/5
f 534/2/5 533/2/5 532/2/5
f 535/2/5 533/2/5 534/2/5
f 540/3/5 537/3/5 536/3/5
f 541/3/5 537/3/5 540/3/5
f 542/3/5 539/3/5 538/3/5
f 543/3/5 539/3/5 542/3/5
f 545/17/5 535/17/5 534/17/5
f 546/17/5 535/17/5 545/17/5
f 549/7/5 545/7/5 544/7/5
f 550/15/5 546/15/5 545/15/5
f 550/7/5 545/7/5 549/7/5
f 551/7/5 547/7/5 546/7/5
f 551/15/5 546/15/5 550/15/5
f 552/7/5 547/7/5 551/7/5
f 554/7/5 550/7/5 549/7/5
f 554/7/5 553/7/5 552/7/5
f 554/7/5 552/7/5 551/7/5
f 554/7/5 551/7/5 550/7/5
f 554/7/5 549/7/5 548/7/5
f 555/7/5 553/7/5 554/7/5
f 556/7/5 553/7/5 555/7/5
f 557/7/5 553/7/5 556/7/5
f 558/7/5 556/7/5 555/7/5
f 559/7/5 556/7/5 558/7/5
f 564/7/5 561/7/5 560/7/5
f 565/7/5 561/7/5 564/7/5
f 568/7/5 563/7/5 562/7/5
f 569/7/5 563/7/5 568/7/5
f 570/1/5 567/1/5 566/1/5
f 571/1/5 567/1/5 570/1/5
f 576/3/5 573/3/5 572/3/5
f 576/4/5 574/4/5 573/4/5
f 577/3/5 575/3/5 574/3/5
f 577/4/5 574/4/5 576/4/5
f 578/3/5 575/3/5 577/3/5
f 579/3/5 576/3/5 572/3/5
f 580/3/5 576/3/5 579/3/5
f 581/3/5 576/3/5 580/3/5
f 582/3/5 575/3/5 578/3/5
f 583/3/5 575/3/5 582/3/5
f 584/3/5 575/3/5 583/3/5
f 585/3/5 581/3/5 580/3/5
f 585/3/5 583/3/5 582/3/5
f 585/3/5 582/3/5 581/3/5
f 586/3/5 583/3/5 585/3/5
f 593/3/5 588/3/5 587/3/5
f 594/5/5 589/5/5 588/5/5
f 594/3/5 588/3/5 593/3/5
f 595/5/5 589/5/5 594/5/5
f 596/5/5 591/5/5 590/5/5
f 597/3/5 592/3/5 591/3/5
f 597/5/5 591/5/5 596/5/5
f 598/3/5 592/3/5 597/3/5
f 599/22/5 595/22/5 594/22/5
f 602/22/5 597/22/5 596/22/5
f 603/22/5 599/22/5 594/22/5
f 604/3/5 600/3/5 599/3/5
f 604/22/5 599/22/5 603/22/5
f 605/3/5 600/3/5 604/3/5
f 606/3/5 602/3/5 601/3/5
f 607/22/5 597/22/5 602/22/5
f 607/3/5 602/3/5 606/3/5
f 608/22/5 597/22/5 607/22/5
f 609/22/5 605/22/5 604/22/5
f 609/22/5 606/22/5 605/22/5
f 609/22/5 607/22/5 606/22/5
f 610/22/5 607/22/5 609/22/5
f 615/22/5 612/22/5 611/22/5
f 616/22/5 612/22/5 615/22/5
f 617/22/5 614/22/5 613/22/5
f 618/22/5 615/22/5 611/22/5
f 619/22/5 614/22/5 617/22/5
f 620/22/5 618/22/5 611/22/5
f 621/22/5 618/22/5 620/22/5
f 622/22/5 614/22/5 619/22/5
f 623/22/5 614/22/5 622/22/5
f 628/22/5 625/22/5 624/22/5
f 629/22/5 625/22/5 628/22/5
f 630/22/5 625/22/5 629/22/5
f 631/22/5 627/22/5 626/22/5
f 632/22/5 627/22/5 631/22/5
f 637/20/5 634/20/5 633/20/5
f 638/20/5 634/20/5 637/20/5
f 640/20/5 636/20/5 635/20/5
f 641/20/5 636/20/5 640/20/5
f 642/22/5 640/22/5 639/22/5
f 643/22/5 640/22/5 642/22/5
f 650/20/5 645/20/5 644/20/5
f 651/20/5 645/20/5 650/20/5
f 652/20/5 647/20/5 646/20/5
f 653/20/5 647/20/5 652/20/5
f 654/20/5 649/20/5 648/20/5
f 655/20/5 649/20/5 654/20/5
f 660/20/5 657/20/5 656/20/5
f 661/20/5 657/20/5 660/20/5
f 662/20/5 657/20/5 661/20/5
f 663/20/5 659/20/5 658/20/5
f 664/20/5 659/20/5 663/20/5
f 665/20/5 659/20/5 664/20/5
f 666/22/6 667/22/6 670/22/6
f 670/22/6 667/22/6 671/22/6
f 668/22/6 669/22/6 672/22/6
f 672/22/6 669/22/6 673/22/6
f 674/17/6 675/17/6 678/17/6
f 675/2/6 676/2/6 678/2/6
f 676/17/6 677/17/6 679/17/6
f 678/2/6 676/2/6 679/2/6
f 674/17/6 678/17/6 681/17/6
f 679/17/6 677/17/6 682/17/6
f 680/15/6 681/15/6 684/15/6
f 681/17/6 678/17/6 685/17/6
f 684/15/6 681/15/6 685/15/6
f 682/15/6 683/15/6 686/15/6
f 679/17/6 682/17/6 686/17/6
f 686/15/6 683/15/6 687/15/6
f 685/17/6 678/17/6 688/17/6
f 688/17/6 678/17/6 689/17/6
f 679/17/6 686/17/6 690/17/6
f 690/17/6 686/17/6 691/17/6
f 688/7/6 689/7/6 692/7/6
f 689/7/6 690/7/6 692/7/6
f 690/7/6 691/7/6 692/7/6
f 692/7/6 691/7/6 693/7/6
f 694/1/6 695/1/6 696/1/6
f 696/1/6 695/1/6 697/1/6
f 698/7/6 699/7/6 702/7/6
f 700/7/6 701/7/6 702/7/6
f 699/7/6 700/7/6 702/7/6
f 702/7/6 701/7/6 703/7/6
f 704/3/6 705/3/6 708/3/6
f 708/3/6 705/3/6 709/3/6
f 706/3/6 707/3/6 710/3/6
f 710/3/6 707/3/6 711/3/6
f 712/22/6 713/22/6 714/22/6
f 714/22/6 713/22/6 715/22/6
f 716/20/6 717/20/6 720/20/6
f 720/20/6 717/20/6 721/20/6
f 721/20/6 717/20/6 722/20/6
f 718/20/6 719/20/6 723/20/6
f 723/20/6 719/20/6 724/20/6
f 724/20/6 719/20/6 725/20/6
f 726/22/6 727/22/6 730/22/6
f 726/22/6 730/22/6 732/22/6
f 730/22/6 731/22/6 732/22/6
f 732/22/6 731/22/6 733/22/6
f 733/22/6 731/22/6 734/22/6
f 728/22/6 729/22/6 736/22/6
f 736/22/6 729/22/6 737/22/6
f 734/22/6 735/22/6 738/22/6
f 733/22/6 734/22/6 738/22/6
f 738/22/6 735/22/6 739/22/6
f 740/20/6 741/20/6 745/20/6
f 745/20/6 741/20/6 746/20/6
f 742/20/6 743/20/6 750/20/6
f 743/12/6 744/12/6 751/12/6
f 750/20/6 743/20/6 751/20/6
f 744/16/6 745/16/6 752/16/6
f 751/12/6 744/12/6 752/12/6
f 745/21/6 746/21/6 753/21/6
f 752/16/6 745/16/6 753/16/6
f 746/12/6 747/12/6 754/12/6
f 753/21/6 746/21/6 754/21/6
f 747/16/6 748/16/6 755/16/6
f 754/12/6 747/12/6 755/12/6
f 748/20/6 749/20/6 756/20/6
f 755/16/6 748/16/6 756/16/6
f 756/20/6 749/20/6 757/20/6
f 751/22/6 752/22/6 758/22/6
f 758/22/6 752/22/6 759/22/6
f 759/22/6 760/22/6 761/22/6
f 761/22/6 760/22/6 762/22/6
f 763/20/6 764/20/6 767/20/6
f 767/20/6 764/20/6 768/20/6
f 765/20/6 766/20/6 769/20/6
f 769/20/6 766/20/6 770/20/6
f 771/22/6 772/22/6 773/22/6
f 773/22/6 772/22/6 774/22/6
