# MagicaVoxel @ ephtracy

# material
mtllib chr_bobby.mtl
usemtl palette

# normals
vn -1 0 0
vn 1 0 0
vn 0 0 1
vn 0 0 -1
vn 0 -1 0
vn 0 1 0

# texcoords
vt 0.00195312 0.5
vt 0.00976562 0.5
vt 0.0175781 0.5
vt 0.0214844 0.5
vt 0.0332031 0.5
vt 0.0410156 0.5
vt 0.0605469 0.5
vt 0.142578 0.5
vt 0.521484 0.5
vt 0.611328 0.5
vt 0.634766 0.5
vt 0.646484 0.5
vt 0.658203 0.5
vt 0.662109 0.5
vt 0.802734 0.5
vt 0.806641 0.5
vt 0.994141 0.5

# verts
v -4 3 3.5
v -4 3 1.5
v -4 3 -1.5
v -4 3 -3.5
v -4 4 1.5
v -4 4 -1.5
v -4 5 3.5
v -4 5 -3.5
v -4 6 0.5
v -4 6 -0.5
v -4 7 0.5
v -4 7 -0.5
v -4 8 0.5
v -4 8 -0.5
v -3 0 3.5
v -3 0 -2.5
v -3 1 3.5
v -3 1 2.5
v -3 1 1.5
v -3 1 -2.5
v -3 3 2.5
v -3 3 1.5
v -3 3 -1.5
v -3 3 -2.5
v -3 4 1.5
v -3 4 -1.5
v -3 5 2.5
v -3 5 -2.5
v -3 6 0.5
v -3 6 -0.5
v -3 7 0.5
v -3 7 -0.5
v -3 8 4.5
v -3 8 2.5
v -3 8 0.5
v -3 8 -0.5
v -3 8 -2.5
v -3 8 -3.5
v -3 9 4.5
v -3 9 2.5
v -3 9 1.5
v -3 9 0.5
v -3 9 -0.5
v -3 9 -1.5
v -3 9 -2.5
v -3 9 -3.5
v -3 10 2.5
v -3 10 1.5
v -3 10 0.5
v -3 10 -0.5
v -3 10 -1.5
v -3 11 2.5
v -3 11 1.5
v -3 11 0.5
v -3 11 -0.5
v -3 14 2.5
v -3 14 -2.5
v -1 9 3.5
v -1 9 2.5
v -1 10 3.5
v -1 10 2.5
v -1 11 3.5
v -1 11 2.5
v -1 12 3.5
v -1 12 2.5
v 1 0 3.5
v 1 0 -2.5
v 1 1 3.5
v 1 1 2.5
v 1 1 1.5
v 1 1 -1.5
v 1 1 -2.5
v -1 0 3.5
v -1 0 -2.5
v -1 1 3.5
v -1 1 2.5
v -1 1 1.5
v -1 1 -1.5
v -1 1 -2.5
v 1 9 3.5
v 1 9 2.5
v 1 10 3.5
v 1 10 2.5
v 1 11 3.5
v 1 11 2.5
v 1 12 3.5
v 1 12 2.5
v 3 0 3.5
v 3 0 -2.5
v 3 1 3.5
v 3 1 2.5
v 3 1 1.5
v 3 1 -2.5
v 3 2 2.5
v 3 2 1.5
v 3 3 2.5
v 3 3 1.5
v 3 3 -1.5
v 3 3 -2.5
v 3 4 1.5
v 3 4 -1.5
v 3 5 2.5
v 3 5 -2.5
v 3 6 0.5
v 3 6 -0.5
v 3 7 0.5
v 3 7 -0.5
v 3 8 4.5
v 3 8 2.5
v 3 8 0.5
v 3 8 -0.5
v 3 8 -2.5
v 3 8 -3.5
v 3 9 4.5
v 3 9 2.5
v 3 9 -2.5
v 3 9 -3.5
v 3 10 2.5
v 3 10 1.5
v 3 14 2.5
v 3 14 1.5
v 3 14 -2.5
v 4 3 3.5
v 4 3 1.5
v 4 3 -1.5
v 4 3 -3.5
v 4 4 1.5
v 4 4 -1.5
v 4 5 3.5
v 4 5 -3.5
v 4 6 0.5
v 4 6 -0.5
v 4 7 0.5
v 4 7 -0.5
v 4 8 0.5
v 4 8 -0.5
v -3 8 4.5
v -3 9 4.5
v 3 8 4.5
v 3 9 4.5
v -4 3 3.5
v -4 5 3.5
v -3 0 3.5
v -3 1 3.5
v -1 0 3.5
v -1 1 3.5
v -1 9 3.5
v -1 10 3.5
v -1 11 3.5
v -1 12 3.5
v 0 11 3.5
v 0 12 3.5
v 1 0 3.5
v 1 1 3.5
v 1 9 3.5
v 1 10 3.5
v 1 11 3.5
v 1 12 3.5
v 3 0 3.5
v 3 1 3.5
v 4 3 3.5
v 4 5 3.5
v -3 1 2.5
v -3 3 2.5
v -3 5 2.5
v -3 8 2.5
v -3 9 2.5
v -3 10 2.5
v -3 11 2.5
v -3 14 2.5
v -2 2 2.5
v -2 3 2.5
v -2 6 2.5
v -2 7 2.5
v -2 9 2.5
v -2 10 2.5
v -2 11 2.5
v -2 12 2.5
v -1 1 2.5
v -1 2 2.5
v -1 3 2.5
v -1 6 2.5
v -1 7 2.5
v -1 9 2.5
v -1 10 2.5
v -1 11 2.5
v -1 12 2.5
v 0 1 2.5
v 0 2 2.5
v 0 3 2.5
v 0 12 2.5
v 1 1 2.5
v 1 2 2.5
v 1 6 2.5
v 1 7 2.5
v 1 9 2.5
v 1 10 2.5
v 1 11 2.5
v 1 12 2.5
v 2 1 2.5
v 2 2 2.5
v 2 3 2.5
v 2 6 2.5
v 2 7 2.5
v 2 10 2.5
v 2 14 2.5
v 3 1 2.5
v 3 2 2.5
v 3 3 2.5
v 3 5 2.5
v 3 8 2.5
v 3 9 2.5
v 3 10 2.5
v 3 14 2.5
v -4 6 0.5
v -4 7 0.5
v -4 8 0.5
v -3 6 0.5
v -3 7 0.5
v -3 8 0.5
v 3 6 0.5
v 3 7 0.5
v 3 8 0.5
v 4 6 0.5
v 4 7 0.5
v 4 8 0.5
v -4 3 -1.5
v -4 4 -1.5
v -3 3 -1.5
v -3 4 -1.5
v 3 3 -1.5
v 3 4 -1.5
v 4 3 -1.5
v 4 4 -1.5
v -4 3 1.5
v -4 4 1.5
v -3 3 1.5
v -3 4 1.5
v 3 3 1.5
v 3 4 1.5
v 4 3 1.5
v 4 4 1.5
v -4 6 -0.5
v -4 7 -0.5
v -4 8 -0.5
v -3 6 -0.5
v -3 7 -0.5
v -3 8 -0.5
v 3 6 -0.5
v 3 7 -0.5
v 3 8 -0.5
v 4 6 -0.5
v 4 7 -0.5
v 4 8 -0.5
v -3 0 -2.5
v -3 1 -2.5
v -3 3 -2.5
v -3 5 -2.5
v -3 8 -2.5
v -3 9 -2.5
v -3 14 -2.5
v -1 0 -2.5
v -1 1 -2.5
v 1 0 -2.5
v 1 1 -2.5
v 3 0 -2.5
v 3 1 -2.5
v 3 3 -2.5
v 3 5 -2.5
v 3 8 -2.5
v 3 9 -2.5
v 3 14 -2.5
v -4 3 -3.5
v -4 5 -3.5
v -3 8 -3.5
v -3 9 -3.5
v 3 8 -3.5
v 3 9 -3.5
v 4 3 -3.5
v 4 5 -3.5
v -3 0 3.5
v -1 0 3.5
v 1 0 3.5
v 3 0 3.5
v -3 0 -2.5
v -1 0 -2.5
v 1 0 -2.5
v 3 0 -2.5
v -1 1 2.5
v 0 1 2.5
v 1 1 2.5
v -1 1 1.5
v 0 1 1.5
v 1 1 1.5
v -1 1 -1.5
v 1 1 -1.5
v -1 1 -2.5
v 1 1 -2.5
v -4 3 3.5
v 4 3 3.5
v -3 3 2.5
v -2 3 2.5
v -1 3 2.5
v 0 3 2.5
v 2 3 2.5
v 3 3 2.5
v -4 3 1.5
v -3 3 1.5
v 3 3 1.5
v 4 3 1.5
v -4 3 -1.5
v -3 3 -1.5
v 3 3 -1.5
v 4 3 -1.5
v -3 3 -2.5
v 3 3 -2.5
v -4 3 -3.5
v 4 3 -3.5
v -4 4 1.5
v -3 4 1.5
v 3 4 1.5
v 4 4 1.5
v -4 4 -1.5
v -3 4 -1.5
v 3 4 -1.5
v 4 4 -1.5
v -4 6 0.5
v -3 6 0.5
v 3 6 0.5
v 4 6 0.5
v -4 6 -0.5
v -3 6 -0.5
v 3 6 -0.5
v 4 6 -0.5
v -3 8 4.5
v 3 8 4.5
v -3 8 2.5
v 3 8 2.5
v -3 8 -2.5
v 3 8 -2.5
v -3 8 -3.5
v 3 8 -3.5
v -3 1 3.5
v -1 1 3.5
v 1 1 3.5
v 3 1 3.5
v -3 1 2.5
v -1 1 2.5
v 1 1 2.5
v 2 1 2.5
v 3 1 2.5
v -4 5 3.5
v 4 5 3.5
v -3 5 2.5
v 3 5 2.5
v -3 5 -2.5
v 3 5 -2.5
v -4 5 -3.5
v 4 5 -3.5
v -4 8 0.5
v -3 8 0.5
v 3 8 0.5
v 4 8 0.5
v -4 8 -0.5
v -3 8 -0.5
v 3 8 -0.5
v 4 8 -0.5
v -3 9 4.5
v 3 9 4.5
v -1 9 3.5
v 1 9 3.5
v -3 9 2.5
v -2 9 2.5
v -1 9 2.5
v 1 9 2.5
v 3 9 2.5
v -3 9 -2.5
v 3 9 -2.5
v -3 9 -3.5
v 3 9 -3.5
v -1 12 3.5
v 0 12 3.5
v 1 12 3.5
v -1 12 2.5
v 0 12 2.5
v 1 12 2.5
v -3 14 2.5
v 2 14 2.5
v 3 14 2.5
v 2 14 1.5
v 3 14 1.5
v -3 14 -2.5
v 3 14 -2.5

# faces
f 5/14/1 2/14/1 1/14/1
f 6/14/1 4/14/1 3/14/1
f 7/14/1 5/14/1 1/14/1
f 7/14/1 6/14/1 5/14/1
f 8/14/1 4/14/1 6/14/1
f 8/14/1 6/14/1 7/14/1
f 11/6/1 10/6/1 9/6/1
f 12/6/1 10/6/1 11/6/1
f 13/5/1 12/5/1 11/5/1
f 14/5/1 12/5/1 13/5/1
f 17/17/1 16/17/1 15/17/1
f 18/17/1 16/17/1 17/17/1
f 19/17/1 16/17/1 18/17/1
f 20/17/1 16/17/1 19/17/1
f 21/16/1 19/16/1 18/16/1
f 22/14/1 20/14/1 19/14/1
f 22/16/1 19/16/1 21/16/1
f 23/14/1 20/14/1 22/14/1
f 24/14/1 20/14/1 23/14/1
f 25/14/1 23/14/1 22/14/1
f 26/14/1 23/14/1 25/14/1
f 29/5/1 28/5/1 27/5/1
f 30/5/1 28/5/1 29/5/1
f 31/5/1 29/5/1 27/5/1
f 32/5/1 28/5/1 30/5/1
f 34/5/1 31/5/1 27/5/1
f 35/5/1 31/5/1 34/5/1
f 36/5/1 28/5/1 32/5/1
f 37/5/1 28/5/1 36/5/1
f 39/14/1 37/14/1 36/14/1
f 39/14/1 38/14/1 37/14/1
f 39/14/1 36/14/1 35/14/1
f 39/14/1 34/14/1 33/14/1
f 39/14/1 35/14/1 34/14/1
f 40/14/1 38/14/1 39/14/1
f 41/14/1 38/14/1 40/14/1
f 42/14/1 38/14/1 41/14/1
f 43/14/1 38/14/1 42/14/1
f 44/14/1 38/14/1 43/14/1
f 45/14/1 38/14/1 44/14/1
f 46/14/1 38/14/1 45/14/1
f 47/14/1 41/14/1 40/14/1
f 48/16/1 42/16/1 41/16/1
f 48/14/1 41/14/1 47/14/1
f 49/14/1 43/14/1 42/14/1
f 49/16/1 42/16/1 48/16/1
f 50/16/1 44/16/1 43/16/1
f 50/14/1 43/14/1 49/14/1
f 51/14/1 45/14/1 44/14/1
f 51/16/1 44/16/1 50/16/1
f 52/16/1 48/16/1 47/16/1
f 53/14/1 49/14/1 48/14/1
f 53/16/1 48/16/1 52/16/1
f 54/16/1 50/16/1 49/16/1
f 54/14/1 49/14/1 53/14/1
f 55/14/1 51/14/1 50/14/1
f 55/16/1 50/16/1 54/16/1
f 56/14/1 53/14/1 52/14/1
f 56/14/1 54/14/1 53/14/1
f 56/14/1 55/14/1 54/14/1
f 57/14/1 51/14/1 55/14/1
f 57/14/1 55/14/1 56/14/1
f 57/14/1 45/14/1 51/14/1
f 60/3/1 59/3/1 58/3/1
f 61/3/1 59/3/1 60/3/1
f 62/4/1 61/4/1 60/4/1
f 63/4/1 61/4/1 62/4/1
f 64/3/1 63/3/1 62/3/1
f 65/3/1 63/3/1 64/3/1
f 68/17/1 67/17/1 66/17/1
f 69/17/1 67/17/1 68/17/1
f 70/17/1 67/17/1 69/17/1
f 71/17/1 67/17/1 70/17/1
f 72/17/1 67/17/1 71/17/1
f 73/17/2 74/17/2 75/17/2
f 75/17/2 74/17/2 76/17/2
f 76/17/2 74/17/2 77/17/2
f 77/17/2 74/17/2 78/17/2
f 78/17/2 74/17/2 79/17/2
f 80/3/2 81/3/2 82/3/2
f 82/3/2 81/3/2 83/3/2
f 82/4/2 83/4/2 84/4/2
f 84/4/2 83/4/2 85/4/2
f 84/2/2 85/2/2 86/2/2
f 86/2/2 85/2/2 87/2/2
f 88/17/2 89/17/2 90/17/2
f 90/17/2 89/17/2 91/17/2
f 91/17/2 89/17/2 92/17/2
f 92/17/2 89/17/2 93/17/2
f 91/15/2 92/15/2 94/15/2
f 92/14/2 93/14/2 95/14/2
f 94/15/2 92/15/2 95/15/2
f 94/11/2 95/11/2 96/11/2
f 95/14/2 93/14/2 97/14/2
f 96/11/2 95/11/2 97/11/2
f 97/14/2 93/14/2 98/14/2
f 98/14/2 93/14/2 99/14/2
f 97/14/2 98/14/2 100/14/2
f 100/14/2 98/14/2 101/14/2
f 102/5/2 103/5/2 104/5/2
f 104/5/2 103/5/2 105/5/2
f 102/5/2 104/5/2 106/5/2
f 105/5/2 103/5/2 107/5/2
f 102/5/2 106/5/2 109/5/2
f 109/5/2 106/5/2 110/5/2
f 107/5/2 103/5/2 111/5/2
f 111/5/2 103/5/2 112/5/2
f 111/14/2 112/14/2 114/14/2
f 112/14/2 113/14/2 114/14/2
f 110/14/2 111/14/2 114/14/2
f 108/14/2 109/14/2 114/14/2
f 109/14/2 110/14/2 114/14/2
f 114/14/2 113/14/2 115/14/2
f 115/14/2 113/14/2 116/14/2
f 116/14/2 113/14/2 117/14/2
f 115/14/2 116/14/2 118/14/2
f 118/14/2 116/14/2 119/14/2
f 118/13/2 119/13/2 120/13/2
f 119/14/2 116/14/2 121/14/2
f 120/13/2 119/13/2 121/13/2
f 121/14/2 116/14/2 122/14/2
f 123/14/2 124/14/2 127/14/2
f 125/14/2 126/14/2 128/14/2
f 123/14/2 127/14/2 129/14/2
f 127/14/2 128/14/2 129/14/2
f 128/14/2 126/14/2 130/14/2
f 129/14/2 128/14/2 130/14/2
f 131/6/2 132/6/2 133/6/2
f 133/6/2 132/6/2 134/6/2
f 133/5/2 134/5/2 135/5/2
f 135/5/2 134/5/2 136/5/2
f 139/14/3 138/14/3 137/14/3
f 140/14/3 138/14/3 139/14/3
f 145/17/3 144/17/3 143/17/3
f 146/17/3 144/17/3 145/17/3
f 151/3/3 150/3/3 149/3/3
f 151/4/3 149/4/3 148/4/3
f 152/3/3 150/3/3 151/3/3
f 155/3/3 148/3/3 147/3/3
f 156/4/3 151/4/3 148/4/3
f 156/3/3 148/3/3 155/3/3
f 157/2/3 152/2/3 151/2/3
f 157/4/3 151/4/3 156/4/3
f 158/2/3 152/2/3 157/2/3
f 159/17/3 154/17/3 153/17/3
f 160/17/3 154/17/3 159/17/3
f 161/14/3 142/14/3 141/14/3
f 162/14/3 142/14/3 161/14/3
f 171/16/3 164/16/3 163/16/3
f 172/16/3 164/16/3 171/16/3
f 173/5/3 166/5/3 165/5/3
f 174/5/3 166/5/3 173/5/3
f 175/14/3 168/14/3 167/14/3
f 176/16/3 169/16/3 168/16/3
f 176/14/3 168/14/3 175/14/3
f 177/14/3 170/14/3 169/14/3
f 177/16/3 169/16/3 176/16/3
f 178/14/3 170/14/3 177/14/3
f 179/16/3 171/16/3 163/16/3
f 180/14/3 172/14/3 171/14/3
f 180/16/3 171/16/3 179/16/3
f 181/14/3 172/14/3 180/14/3
f 182/5/3 173/5/3 165/5/3
f 182/17/3 174/17/3 173/17/3
f 183/5/3 166/5/3 174/5/3
f 183/17/3 174/17/3 182/17/3
f 184/16/3 176/16/3 175/16/3
f 185/14/3 177/14/3 176/14/3
f 185/16/3 176/16/3 184/16/3
f 186/16/3 178/16/3 177/16/3
f 186/14/3 177/14/3 185/14/3
f 187/14/3 170/14/3 178/14/3
f 187/16/3 178/16/3 186/16/3
f 188/14/3 180/14/3 179/14/3
f 189/16/3 181/16/3 180/16/3
f 189/14/3 180/14/3 188/14/3
f 190/16/3 181/16/3 189/16/3
f 191/14/3 170/14/3 187/14/3
f 192/16/3 189/16/3 188/16/3
f 193/14/3 190/14/3 189/14/3
f 193/16/3 189/16/3 192/16/3
f 194/5/3 182/5/3 165/5/3
f 194/5/3 183/5/3 182/5/3
f 195/5/3 166/5/3 183/5/3
f 195/5/3 183/5/3 194/5/3
f 199/14/3 170/14/3 191/14/3
f 200/14/3 193/14/3 192/14/3
f 201/14/3 190/14/3 193/14/3
f 201/14/3 193/14/3 200/14/3
f 202/14/3 190/14/3 201/14/3
f 203/5/3 194/5/3 165/5/3
f 203/17/3 195/17/3 194/17/3
f 204/5/3 166/5/3 195/5/3
f 204/17/3 195/17/3 203/17/3
f 205/14/3 199/14/3 198/14/3
f 205/14/3 198/14/3 197/14/3
f 205/14/3 197/14/3 196/14/3
f 206/14/3 170/14/3 199/14/3
f 206/14/3 199/14/3 205/14/3
f 207/15/3 201/15/3 200/15/3
f 208/11/3 202/11/3 201/11/3
f 208/15/3 201/15/3 207/15/3
f 209/11/3 202/11/3 208/11/3
f 210/5/3 204/5/3 203/5/3
f 210/5/3 203/5/3 165/5/3
f 211/5/3 166/5/3 204/5/3
f 211/5/3 204/5/3 210/5/3
f 212/14/3 205/14/3 196/14/3
f 213/13/3 206/13/3 205/13/3
f 213/14/3 205/14/3 212/14/3
f 214/13/3 206/13/3 213/13/3
f 218/6/3 216/6/3 215/6/3
f 219/5/3 217/5/3 216/5/3
f 219/6/3 216/6/3 218/6/3
f 220/5/3 217/5/3 219/5/3
f 224/6/3 222/6/3 221/6/3
f 225/5/3 223/5/3 222/5/3
f 225/6/3 222/6/3 224/6/3
f 226/5/3 223/5/3 225/5/3
f 229/14/3 228/14/3 227/14/3
f 230/14/3 228/14/3 229/14/3
f 233/14/3 232/14/3 231/14/3
f 234/14/3 232/14/3 233/14/3
f 235/14/4 236/14/4 237/14/4
f 237/14/4 236/14/4 238/14/4
f 239/14/4 240/14/4 241/14/4
f 241/14/4 240/14/4 242/14/4
f 243/6/4 244/6/4 246/6/4
f 244/5/4 245/5/4 247/5/4
f 246/6/4 244/6/4 247/6/4
f 247/5/4 245/5/4 248/5/4
f 249/6/4 250/6/4 252/6/4
f 250/5/4 251/5/4 253/5/4
f 252/6/4 250/6/4 253/6/4
f 253/5/4 251/5/4 254/5/4
f 255/17/4 256/17/4 262/17/4
f 256/14/4 257/14/4 263/14/4
f 262/17/4 256/17/4 263/17/4
f 263/14/4 257/14/4 265/14/4
f 264/17/4 265/17/4 266/17/4
f 265/14/4 257/14/4 267/14/4
f 266/17/4 265/17/4 267/17/4
f 267/14/4 257/14/4 268/14/4
f 258/5/4 259/5/4 269/5/4
f 269/5/4 259/5/4 270/5/4
f 260/14/4 261/14/4 271/14/4
f 271/14/4 261/14/4 272/14/4
f 275/14/4 276/14/4 277/14/4
f 277/14/4 276/14/4 278/14/4
f 273/14/4 274/14/4 279/14/4
f 279/14/4 274/14/4 280/14/4
f 285/17/5 282/17/5 281/17/5
f 286/17/5 282/17/5 285/17/5
f 287/17/5 284/17/5 283/17/5
f 288/17/5 284/17/5 287/17/5
f 292/14/5 290/14/5 289/14/5
f 293/16/5 291/16/5 290/16/5
f 293/14/5 290/14/5 292/14/5
f 294/16/5 291/16/5 293/16/5
f 295/8/5 293/8/5 292/8/5
f 295/8/5 294/8/5 293/8/5
f 296/8/5 294/8/5 295/8/5
f 297/14/5 296/14/5 295/14/5
f 298/14/5 296/14/5 297/14/5
f 301/14/5 300/14/5 299/14/5
f 302/14/5 300/14/5 301/14/5
f 303/14/5 300/14/5 302/14/5
f 304/14/5 300/14/5 303/14/5
f 305/14/5 300/14/5 304/14/5
f 306/14/5 300/14/5 305/14/5
f 307/14/5 301/14/5 299/14/5
f 308/14/5 301/14/5 307/14/5
f 309/14/5 300/14/5 306/14/5
f 310/14/5 300/14/5 309/14/5
f 315/14/5 312/14/5 311/14/5
f 316/14/5 314/14/5 313/14/5
f 317/14/5 315/14/5 311/14/5
f 317/14/5 316/14/5 315/14/5
f 318/14/5 314/14/5 316/14/5
f 318/14/5 316/14/5 317/14/5
f 323/14/5 320/14/5 319/14/5
f 324/14/5 320/14/5 323/14/5
f 325/14/5 322/14/5 321/14/5
f 326/14/5 322/14/5 325/14/5
f 331/6/5 328/6/5 327/6/5
f 332/6/5 328/6/5 331/6/5
f 333/6/5 330/6/5 329/6/5
f 334/6/5 330/6/5 333/6/5
f 337/14/5 336/14/5 335/14/5
f 338/14/5 336/14/5 337/14/5
f 341/14/5 340/14/5 339/14/5
f 342/14/5 340/14/5 341/14/5
f 343/17/6 344/17/6 347/17/6
f 347/17/6 344/17/6 348/17/6
f 345/17/6 346/17/6 349/17/6
f 349/17/6 346/17/6 350/17/6
f 350/17/6 346/17/6 351/17/6
f 352/14/6 353/14/6 354/14/6
f 354/14/6 353/14/6 355/14/6
f 352/14/6 354/14/6 356/14/6
f 355/14/6 353/14/6 357/14/6
f 352/14/6 356/14/6 358/14/6
f 356/14/6 357/14/6 358/14/6
f 357/14/6 353/14/6 359/14/6
f 358/14/6 357/14/6 359/14/6
f 360/5/6 361/5/6 364/5/6
f 364/5/6 361/5/6 365/5/6
f 362/5/6 363/5/6 366/5/6
f 366/5/6 363/5/6 367/5/6
f 368/14/6 369/14/6 370/14/6
f 370/14/6 369/14/6 371/14/6
f 368/14/6 370/14/6 372/14/6
f 372/14/6 370/14/6 373/14/6
f 373/14/6 370/14/6 374/14/6
f 371/14/6 369/14/6 375/14/6
f 375/14/6 369/14/6 376/14/6
f 377/14/6 378/14/6 379/14/6
f 379/14/6 378/14/6 380/14/6
f 381/3/6 382/3/6 384/3/6
f 382/2/6 383/2/6 385/2/6
f 384/3/6 382/3/6 385/3/6
f 385/2/6 383/2/6 386/2/6
f 387/14/6 388/14/6 390/14/6
f 388/13/6 389/13/6 390/13/6
f 390/13/6 389/13/6 391/13/6
f 387/14/6 390/14/6 392/14/6
f 390/14/6 391/14/6 392/14/6
f 392/14/6 391/14/6 393/14/6
