# MagicaVoxel @ ephtracy

# material
mtllib slime.mtl
usemtl palette

# normals
vn -1 0 0
vn 1 0 0
vn 0 0 1
vn 0 0 -1
vn 0 -1 0
vn 0 1 0

# texcoords
vt 0.0605469 0.5
vt 0.142578 0.5
vt 0.310547 0.5
vt 0.365234 0.5
vt 0.533203 0.5
vt 0.646484 0.5
vt 0.986328 0.5
vt 0.994141 0.5

# verts
v -4 0 4.5
v -4 0 -1.5
v -4 4 4.5
v -4 4 1.5
v -4 4 -0.5
v -4 4 -1.5
v -4 5 1.5
v -4 5 -0.5
v -3 0 -1.5
v -3 0 -2.5
v -3 1 -1.5
v -3 1 -2.5
v -3 2 -1.5
v -3 2 -2.5
v -3 4 4.5
v -3 4 1.5
v -3 5 1.5
v -3 5 -0.5
v -3 6 4.5
v -3 6 -0.5
v -2 0 -2.5
v -2 0 -3.5
v -2 1 -2.5
v -2 1 -3.5
v 0 6 1.5
v 0 6 0.5
v 0 7 1.5
v 0 7 0.5
v 1 0 -2.5
v 1 0 -3.5
v 1 1 -2.5
v 1 1 -3.5
v 2 0 -1.5
v 2 0 -2.5
v 2 1 -1.5
v 2 1 -2.5
v 2 2 -1.5
v 2 2 -2.5
v 2 4 4.5
v 2 4 1.5
v 2 5 1.5
v 2 5 -0.5
v 2 6 4.5
v 2 6 1.5
v 2 6 0.5
v 2 6 -0.5
v 3 0 4.5
v 3 0 -1.5
v 3 4 4.5
v 3 4 1.5
v 3 4 -0.5
v 3 4 -1.5
v 3 5 1.5
v 3 5 -0.5
v 3 6 1.5
v 3 6 0.5
v 3 7 1.5
v 3 7 0.5
v -4 0 4.5
v -4 4 4.5
v -3 3 4.5
v -3 4 4.5
v -3 6 4.5
v -2 3 4.5
v -2 4 4.5
v 1 3 4.5
v 1 4 4.5
v 2 3 4.5
v 2 4 4.5
v 2 6 4.5
v 3 0 4.5
v 3 4 4.5
v -4 4 1.5
v -4 5 1.5
v -3 4 1.5
v -3 5 1.5
v 0 6 1.5
v 0 7 1.5
v 2 4 1.5
v 2 5 1.5
v 2 6 1.5
v 3 4 1.5
v 3 5 1.5
v 3 6 1.5
v 3 7 1.5
v 0 6 0.5
v 0 7 0.5
v 2 6 0.5
v 3 6 0.5
v 3 7 0.5
v -4 4 -0.5
v -4 5 -0.5
v -3 5 -0.5
v -3 6 -0.5
v 2 5 -0.5
v 2 6 -0.5
v 3 4 -0.5
v 3 5 -0.5
v -4 0 -1.5
v -4 4 -1.5
v -3 0 -1.5
v -3 1 -1.5
v -3 2 -1.5
v 2 0 -1.5
v 2 1 -1.5
v 2 2 -1.5
v 3 0 -1.5
v 3 4 -1.5
v -3 0 -2.5
v -3 1 -2.5
v -3 2 -2.5
v -2 0 -2.5
v -2 1 -2.5
v 1 0 -2.5
v 1 1 -2.5
v 2 0 -2.5
v 2 1 -2.5
v 2 2 -2.5
v -2 0 -3.5
v -2 1 -3.5
v 1 0 -3.5
v 1 1 -3.5
v -4 0 4.5
v 3 0 4.5
v -4 0 -1.5
v -3 0 -1.5
v 2 0 -1.5
v 3 0 -1.5
v -3 0 -2.5
v -2 0 -2.5
v 1 0 -2.5
v 2 0 -2.5
v -2 0 -3.5
v 1 0 -3.5
v 2 6 1.5
v 3 6 1.5
v 2 6 0.5
v 3 6 0.5
v -2 1 -2.5
v 1 1 -2.5
v -2 1 -3.5
v 1 1 -3.5
v -3 2 -1.5
v 2 2 -1.5
v -3 2 -2.5
v 2 2 -2.5
v -4 4 4.5
v -3 4 4.5
v 2 4 4.5
v 3 4 4.5
v -4 4 1.5
v -3 4 1.5
v 2 4 1.5
v 3 4 1.5
v -4 4 -0.5
v 3 4 -0.5
v -4 4 -1.5
v 3 4 -1.5
v -4 5 1.5
v -3 5 1.5
v 2 5 1.5
v 3 5 1.5
v -4 5 -0.5
v -3 5 -0.5
v 2 5 -0.5
v 3 5 -0.5
v -3 6 4.5
v 2 6 4.5
v 0 6 1.5
v 2 6 1.5
v 0 6 0.5
v 2 6 0.5
v -3 6 -0.5
v 2 6 -0.5
v 0 7 1.5
v 3 7 1.5
v 0 7 0.5
v 3 7 0.5

# faces
f 3/2/1 2/2/1 1/2/1
f 4/2/1 2/2/1 3/2/1
f 5/2/1 2/2/1 4/2/1
f 6/2/1 2/2/1 5/2/1
f 7/2/1 5/2/1 4/2/1
f 8/2/1 5/2/1 7/2/1
f 11/2/1 10/2/1 9/2/1
f 12/2/1 10/2/1 11/2/1
f 13/3/1 12/3/1 11/3/1
f 14/3/1 12/3/1 13/3/1
f 17/2/1 16/2/1 15/2/1
f 19/2/1 17/2/1 15/2/1
f 19/2/1 18/2/1 17/2/1
f 20/2/1 18/2/1 19/2/1
f 23/2/1 22/2/1 21/2/1
f 24/2/1 22/2/1 23/2/1
f 27/2/1 26/2/1 25/2/1
f 28/2/1 26/2/1 27/2/1
f 29/2/2 30/2/2 31/2/2
f 31/2/2 30/2/2 32/2/2
f 33/2/2 34/2/2 35/2/2
f 35/2/2 34/2/2 36/2/2
f 35/3/2 36/3/2 37/3/2
f 37/3/2 36/3/2 38/3/2
f 39/2/2 40/2/2 41/2/2
f 39/2/2 41/2/2 43/2/2
f 41/2/2 42/2/2 43/2/2
f 43/2/2 42/2/2 44/2/2
f 44/2/2 42/2/2 45/2/2
f 45/2/2 42/2/2 46/2/2
f 47/2/2 48/2/2 49/2/2
f 49/2/2 48/2/2 50/2/2
f 50/2/2 48/2/2 51/2/2
f 51/2/2 48/2/2 52/2/2
f 50/2/2 51/2/2 53/2/2
f 53/2/2 51/2/2 54/2/2
f 55/2/2 56/2/2 57/2/2
f 57/2/2 56/2/2 58/2/2
f 61/2/3 60/2/3 59/2/3
f 62/2/3 60/2/3 61/2/3
f 64/2/3 61/2/3 59/2/3
f 64/8/3 62/8/3 61/8/3
f 65/2/3 63/2/3 62/2/3
f 65/8/3 62/8/3 64/8/3
f 66/2/3 64/2/3 59/2/3
f 66/2/3 65/2/3 64/2/3
f 67/2/3 63/2/3 65/2/3
f 67/2/3 65/2/3 66/2/3
f 68/2/3 66/2/3 59/2/3
f 68/8/3 67/8/3 66/8/3
f 69/2/3 63/2/3 67/2/3
f 69/8/3 67/8/3 68/8/3
f 70/2/3 63/2/3 69/2/3
f 71/2/3 68/2/3 59/2/3
f 71/2/3 69/2/3 68/2/3
f 72/2/3 69/2/3 71/2/3
f 75/2/3 74/2/3 73/2/3
f 76/2/3 74/2/3 75/2/3
f 81/2/3 78/2/3 77/2/3
f 82/2/3 80/2/3 79/2/3
f 83/2/3 80/2/3 82/2/3
f 84/2/3 78/2/3 81/2/3
f 85/2/3 78/2/3 84/2/3
f 86/2/4 87/2/4 88/2/4
f 88/2/4 87/2/4 89/2/4
f 89/2/4 87/2/4 90/2/4
f 91/2/4 92/2/4 93/2/4
f 91/2/4 93/2/4 95/2/4
f 93/2/4 94/2/4 95/2/4
f 95/2/4 94/2/4 96/2/4
f 91/2/4 95/2/4 97/2/4
f 97/2/4 95/2/4 98/2/4
f 99/2/4 100/2/4 101/2/4
f 101/2/4 100/2/4 102/2/4
f 102/2/4 100/2/4 103/2/4
f 103/2/4 100/2/4 106/2/4
f 104/2/4 105/2/4 107/2/4
f 105/2/4 106/2/4 107/2/4
f 106/2/4 100/2/4 108/2/4
f 107/2/4 106/2/4 108/2/4
f 109/2/4 110/2/4 112/2/4
f 110/3/4 111/3/4 113/3/4
f 112/2/4 110/2/4 113/2/4
f 113/3/4 111/3/4 115/3/4
f 114/2/4 115/2/4 116/2/4
f 115/3/4 111/3/4 117/3/4
f 116/2/4 115/2/4 117/2/4
f 117/3/4 111/3/4 118/3/4
f 119/2/4 120/2/4 121/2/4
f 121/2/4 120/2/4 122/2/4
f 125/2/5 124/2/5 123/2/5
f 126/2/5 124/2/5 125/2/5
f 127/2/5 124/2/5 126/2/5
f 128/2/5 124/2/5 127/2/5
f 129/2/5 127/2/5 126/2/5
f 130/2/5 127/2/5 129/2/5
f 131/2/5 127/2/5 130/2/5
f 132/2/5 127/2/5 131/2/5
f 133/2/5 131/2/5 130/2/5
f 134/2/5 131/2/5 133/2/5
f 137/2/5 136/2/5 135/2/5
f 138/2/5 136/2/5 137/2/5
f 139/2/6 140/2/6 141/2/6
f 141/2/6 140/2/6 142/2/6
f 143/3/6 144/3/6 145/3/6
f 145/3/6 144/3/6 146/3/6
f 147/2/6 148/2/6 151/2/6
f 151/2/6 148/2/6 152/2/6
f 149/2/6 150/2/6 153/2/6
f 153/2/6 150/2/6 154/2/6
f 155/2/6 156/2/6 157/2/6
f 157/2/6 156/2/6 158/2/6
f 159/2/6 160/2/6 163/2/6
f 163/2/6 160/2/6 164/2/6
f 161/2/6 162/2/6 165/2/6
f 165/2/6 162/2/6 166/2/6
f 167/2/6 168/2/6 169/2/6
f 169/2/6 168/2/6 170/2/6
f 167/2/6 169/2/6 171/2/6
f 167/2/6 171/2/6 173/2/6
f 171/2/6 172/2/6 173/2/6
f 173/2/6 172/2/6 174/2/6
f 175/2/6 176/2/6 177/2/6
f 177/2/6 176/2/6 178/2/6
